<?xml version="1.0" encoding="utf-8"?>
<!-- Generator: Adobe Illustrator 26.3.1, SVG Export Plug-In . SVG Version: 6.00 Build 0)  -->
<svg version="1.1" id="Слой_1" xmlns="http://www.w3.org/2000/svg" xmlns:xlink="http://www.w3.org/1999/xlink" x="0px" y="0px"
	 width="46.1px" height="46.5px" viewBox="0 0 46.1 46.5" style="enable-background:new 0 0 46.1 46.5;" xml:space="preserve">
<style type="text/css">
	.st0{opacity:0.1;}
	.st1{fill:#31353A;}
	.st2{opacity:0.3;}
	.st3{fill:#7A1B1B;}
	.st4{fill:#C79791;}
	.st5{clip-path:url(#SVGID_00000016754773027459163210000001893886919866258560_);}
	.st6{fill:#FFFFFF;}
</style>
<g class="st0">
	<path class="st1" d="M45.9,39.8c0,2.7-10.3,4.8-22.9,4.8C10.3,44.6,0,42.5,0,39.8C0,37.2,10.3,35,22.9,35
		C35.6,35,45.9,37.2,45.9,39.8z"/>
	<path class="st1" d="M22.9,46.5L7.4,43.3h31.1L22.9,46.5z"/>
</g>
<g class="st2">
	<ellipse class="st3" cx="23.1" cy="23" rx="22.9" ry="23"/>
</g>
<circle class="st4" cx="22.9" cy="23" r="18"/>
<g>
	<defs>
		<rect id="SVGID_1_" x="14.9" y="15" width="16" height="16"/>
	</defs>
	<clipPath id="SVGID_00000001622372863357002590000017446793779428225983_">
		<use xlink:href="#SVGID_1_"  style="overflow:visible;"/>
	</clipPath>
	<g style="clip-path:url(#SVGID_00000001622372863357002590000017446793779428225983_);">
		<path class="st6" d="M22.9,15c-4.3,0-7.9,3.5-7.9,7.9c0,3.7,2.6,6.9,6.1,7.7c-0.4-0.4-0.7-0.9-0.8-1.5c-2.4-1-4.2-3.4-4.2-6.2
			c0-2.7,1.6-5,3.9-6.1c-0.1,0.5,0.3,1.1,0.7,1.7c0.4,0.5,0.2,0.9-0.1,1.1c-0.1,0.1-0.1,0.2-0.1,0.3c0,0.1,0.2,0.2,0.3,0.2
			c4,0.1,5-2.2,5.2-3c2,1.1,3.4,3.3,3.4,5.8c0,2.6-1.5,4.9-3.8,6c-0.1,0.6-0.3,1.1-0.7,1.5c3.3-1,5.7-4,5.7-7.5
			C30.8,18.6,27.3,15,22.9,15z"/>
		<path class="st6" d="M20.8,23.6c0.5,0,0.9-0.4,0.9-0.9c0-0.5-0.4-0.9-0.9-0.9c-0.5,0-0.9,0.4-0.9,0.9C20,23.2,20.4,23.6,20.8,23.6
			z"/>
		<path class="st6" d="M25,23.6c0.5,0,0.9-0.4,0.9-0.9c0-0.5-0.4-0.9-0.9-0.9c-0.5,0-0.9,0.4-0.9,0.9C24.1,23.2,24.5,23.6,25,23.6z"
			/>
		<path class="st6" d="M20.5,27.8c0.2-0.6,0.6-1.2,1.2-1.5c0-0.7,0.6-1.3,1.4-1.3c0.7,0,1.3,0.5,1.4,1.2c0.6,0.3,1.1,0.9,1.3,1.6
			c0.4-0.4,0.6-0.8,0.6-1.3c0-1.3-1.4-2.3-3.2-2.3c-1.7,0-3.2,1-3.2,2.3C20,26.9,20.2,27.4,20.5,27.8z"/>
		<path class="st6" d="M23.4,27.7c-0.1,0-0.2,0-0.3,0c-0.1,0-0.2,0-0.3,0.1c0.1,0,0.1,0,0,0c-0.4,0.1-0.6,0.5-0.6,0.9c0,0,0,0,0,0
			c0.3,0.1,0.6,0.1,1,0.1c0.3,0,0.7,0,1-0.1c0,0,0,0,0-0.1C24.1,28.2,23.8,27.8,23.4,27.7z"/>
		<path class="st6" d="M23.1,25.4c-0.5,0-0.9,0.3-1.1,0.7c0.3-0.2,0.7-0.2,1.1-0.2c0.4,0,0.7,0.1,1,0.2C24,25.6,23.6,25.4,23.1,25.4
			z"/>
		<path class="st6" d="M23.1,26.1c-1.3,0-2.4,1.1-2.4,2.4c0,1.3,1.1,2.4,2.4,2.4c1.3,0,2.4-1.1,2.4-2.4
			C25.6,27.2,24.5,26.1,23.1,26.1z M23.1,29.9c-0.7,0-1.3-0.6-1.3-1.3c0-0.7,0.6-1.3,1.3-1.3c0.7,0,1.3,0.6,1.3,1.3
			S23.8,29.9,23.1,29.9z"/>
	</g>
</g>
</svg>
