<?xml version="1.0" encoding="utf-8"?>
<!-- Generator: Adobe Illustrator 26.3.1, SVG Export Plug-In . SVG Version: 6.00 Build 0)  -->
<svg version="1.1" id="Слой_1" xmlns="http://www.w3.org/2000/svg" xmlns:xlink="http://www.w3.org/1999/xlink" x="0px" y="0px"
	 width="46.1px" height="46.5px" viewBox="0 0 46.1 46.5" style="enable-background:new 0 0 46.1 46.5;" xml:space="preserve">
<style type="text/css">
	.st0{opacity:0.1;}
	.st1{fill:#31353A;}
	.st2{opacity:0.3;}
	.st3{fill:#7A1B1B;}
	.st4{fill:#C79791;}
	.st5{clip-path:url(#SVGID_00000072988748729037687260000008573600894174042034_);}
	.st6{fill:#FFFFFF;}
</style>
<g class="st0">
	<path class="st1" d="M45.9,39.8c0,2.7-10.3,4.8-22.9,4.8C10.3,44.6,0,42.5,0,39.8C0,37.2,10.3,35,22.9,35
		C35.6,35,45.9,37.2,45.9,39.8z"/>
	<path class="st1" d="M22.9,46.5L7.4,43.3h31.1L22.9,46.5z"/>
</g>
<g class="st2">
	<ellipse class="st3" cx="23.1" cy="23" rx="22.9" ry="23"/>
</g>
<circle class="st4" cx="22.9" cy="23" r="18"/>
<g>
	<defs>
		<rect id="SVGID_1_" x="15.9" y="15" width="16" height="16"/>
	</defs>
	<clipPath id="SVGID_00000119799142743039879750000001103673298578239411_">
		<use xlink:href="#SVGID_1_"  style="overflow:visible;"/>
	</clipPath>
	<g style="clip-path:url(#SVGID_00000119799142743039879750000001103673298578239411_);">
		<path class="st6" d="M30.9,22.2c-0.1-0.1-0.3-0.1-0.4-0.1l-1.8,0.3v-1.1c0-0.3-0.2-0.5-0.5-0.5h-0.3c0.7-0.6,1.1-1.5,1.1-2.4
			c0-1.8-1.5-3.3-3.3-3.3c-1.2,0-2.2,0.6-2.8,1.5c-0.6-0.9-1.6-1.5-2.8-1.5c-1.8,0-3.3,1.5-3.3,3.3c0,1,0.4,1.8,1.1,2.4h-0.3
			c-0.3,0-0.5,0.2-0.5,0.5v6.3c0,0.3,0.2,0.5,0.5,0.5h4.1l-2,2c-0.2,0.2-0.2,0.5,0,0.7c0.2,0.2,0.5,0.2,0.7,0l2.5-2.5l2.5,2.5
			c0.1,0.1,0.2,0.2,0.4,0.2c0.1,0,0.3-0.1,0.4-0.2c0.2-0.2,0.2-0.5,0-0.7l-2-2h4.1c0.3,0,0.5-0.2,0.5-0.5v-1.1l1.8,0.3
			c0,0,0.1,0,0.1,0c0.1,0,0.2,0,0.3-0.1c0.1-0.1,0.2-0.2,0.2-0.4v-3.6C31.1,22.5,31,22.3,30.9,22.2z M25.6,16.1c1.2,0,2.3,1,2.3,2.3
			c0,1.2-1,2.3-2.3,2.3s-2.3-1-2.3-2.3C23.4,17.1,24.4,16.1,25.6,16.1z M22.8,20.1c0.2,0.2,0.4,0.5,0.6,0.7h-1.1
			C22.5,20.6,22.7,20.4,22.8,20.1z M17.8,18.3c0-1.2,1-2.3,2.3-2.3c1.2,0,2.3,1,2.3,2.3c0,1.2-1,2.3-2.3,2.3
			C18.8,20.6,17.8,19.6,17.8,18.3z M27.6,27.1h-9.5v-5.2h9.5V27.1z M30.1,25.6l-1.4-0.3v-1.9l1.4-0.3V25.6z"/>
	</g>
</g>
</svg>
