<?xml version="1.0" encoding="utf-8"?>
<!-- Generator: Adobe Illustrator 26.3.1, SVG Export Plug-In . SVG Version: 6.00 Build 0)  -->
<svg version="1.1" id="Слой_1" xmlns="http://www.w3.org/2000/svg" xmlns:xlink="http://www.w3.org/1999/xlink" x="0px" y="0px"
	 width="46.1px" height="46.5px" viewBox="0 0 46.1 46.5" style="enable-background:new 0 0 46.1 46.5;" xml:space="preserve">
<style type="text/css">
	.st0{opacity:0.1;}
	.st1{fill:#31353A;}
	.st2{opacity:0.2;}
	.st3{fill:#7A1B1B;}
	.st4{fill:#C79791;}
	.st5{clip-path:url(#SVGID_00000029767211641107527810000013583010041796896445_);}
	.st6{fill:#FFFFFF;}
</style>
<g class="st0">
	<path class="st1" d="M45.9,39.8c0,2.7-10.3,4.8-22.9,4.8C10.3,44.6,0,42.5,0,39.8C0,37.2,10.3,35,22.9,35
		C35.6,35,45.9,37.2,45.9,39.8z"/>
	<path class="st1" d="M22.9,46.5L7.4,43.3h31.1L22.9,46.5z"/>
</g>
<g class="st2">
	<ellipse class="st3" cx="23.1" cy="23" rx="22.9" ry="23"/>
</g>
<circle class="st4" cx="22.9" cy="23" r="18"/>
<g>
	<defs>
		<rect id="SVGID_1_" x="14.9" y="15" width="16" height="16"/>
	</defs>
	<clipPath id="SVGID_00000093868494463279215770000007474594527312262316_">
		<use xlink:href="#SVGID_1_"  style="overflow:visible;"/>
	</clipPath>
	<g style="clip-path:url(#SVGID_00000093868494463279215770000007474594527312262316_);">
		<path class="st6" d="M30.4,20H26v-4.5c0-0.3-0.2-0.5-0.5-0.5h-5c-0.3,0-0.5,0.2-0.5,0.5V20h-4.5c-0.3,0-0.5,0.2-0.5,0.5v5
			c0,0.3,0.2,0.5,0.5,0.5h4.5v4.5c0,0.3,0.2,0.5,0.5,0.5h5c0.3,0,0.5-0.2,0.5-0.5v-4.5h4.5c0.3,0,0.5-0.2,0.5-0.5v-5
			C30.9,20.3,30.7,20,30.4,20z M29.9,25h-4.5c-0.3,0-0.5,0.2-0.5,0.5V30H21v-4.5c0-0.3-0.2-0.5-0.5-0.5H16v-3.9h4.5
			c0.3,0,0.5-0.2,0.5-0.5v-4.5h3.9v4.5c0,0.3,0.2,0.5,0.5,0.5h4.5V25L29.9,25z"/>
	</g>
</g>
</svg>
