<?xml version="1.0" encoding="utf-8"?>
<!-- Generator: Adobe Illustrator 26.3.1, SVG Export Plug-In . SVG Version: 6.00 Build 0)  -->
<svg version="1.1" id="Слой_1" xmlns="http://www.w3.org/2000/svg" xmlns:xlink="http://www.w3.org/1999/xlink" x="0px" y="0px"
	 width="46.1px" height="46.5px" viewBox="0 0 46.1 46.5" style="enable-background:new 0 0 46.1 46.5;" xml:space="preserve">
<style type="text/css">
	.st0{opacity:0.1;}
	.st1{fill:#31353A;}
	.st2{opacity:0.3;}
	.st3{fill:#7A1B1B;}
	.st4{fill:#C79791;}
	.st5{clip-path:url(#SVGID_00000000943060759793166390000000561113077427288708_);}
	.st6{fill:#FFFFFF;}
</style>
<g class="st0">
	<path class="st1" d="M45.9,39.8c0,2.7-10.3,4.8-22.9,4.8C10.3,44.6,0,42.5,0,39.8C0,37.2,10.3,35,22.9,35
		C35.6,35,45.9,37.2,45.9,39.8z"/>
	<path class="st1" d="M22.9,46.5L7.4,43.3h31.1L22.9,46.5z"/>
</g>
<g class="st2">
	<ellipse class="st3" cx="23.1" cy="23" rx="22.9" ry="23"/>
</g>
<circle class="st4" cx="22.9" cy="23" r="18"/>
<g>
	<defs>
		<rect id="SVGID_1_" x="14.9" y="14" width="16" height="16"/>
	</defs>
	<clipPath id="SVGID_00000005965174507532105120000017268756638867136673_">
		<use xlink:href="#SVGID_1_"  style="overflow:visible;"/>
	</clipPath>
	<g style="clip-path:url(#SVGID_00000005965174507532105120000017268756638867136673_);">
		<path class="st6" d="M25.3,20.9L25.3,20.9l0-2.1c0-0.3-0.2-0.5-0.5-0.6v-2.1c0-0.2-0.1-0.4-0.3-0.5l-2.6-1.5
			c-0.2-0.1-0.4-0.1-0.6,0c-0.2,0.1-0.3,0.3-0.3,0.5v3.7c-0.2,0.1-0.4,0.3-0.4,0.6v2.1h0c-0.3,0-0.6,0.3-0.6,0.6v8
			c0,0.3,0.3,0.6,0.6,0.6h4.7c0.3,0,0.6-0.3,0.6-0.6v-8C25.9,21.2,25.6,20.9,25.3,20.9z M23.6,16.5v1.8h-1.4v-2.6L23.6,16.5z
			 M21.8,19.4h2.3v1.5h-2.3V19.4z M24.7,28.9h-3.5v-6.8h3.5V28.9z"/>
	</g>
</g>
</svg>
