<?xml version="1.0" encoding="utf-8"?>
<!-- Generator: Adobe Illustrator 26.3.1, SVG Export Plug-In . SVG Version: 6.00 Build 0)  -->
<svg version="1.1" id="Слой_1" xmlns="http://www.w3.org/2000/svg" xmlns:xlink="http://www.w3.org/1999/xlink" x="0px" y="0px"
	 width="46.1px" height="46.5px" viewBox="0 0 46.1 46.5" style="enable-background:new 0 0 46.1 46.5;" xml:space="preserve">
<style type="text/css">
	.st0{opacity:0.1;}
	.st1{fill:#31353A;}
	.st2{opacity:0.3;}
	.st3{fill:#7A1B1B;}
	.st4{fill:#C79791;}
	.st5{clip-path:url(#SVGID_00000107552030412973982200000009301699504571747245_);}
	.st6{fill:#FFFFFF;}
</style>
<g class="st0">
	<path class="st1" d="M45.9,39.8c0,2.7-10.3,4.8-22.9,4.8C10.3,44.6,0,42.5,0,39.8C0,37.2,10.3,35,22.9,35
		C35.6,35,45.9,37.2,45.9,39.8z"/>
	<path class="st1" d="M22.9,46.5L7.4,43.3h31.1L22.9,46.5z"/>
</g>
<g class="st2">
	<ellipse class="st3" cx="23.1" cy="23" rx="22.9" ry="23"/>
</g>
<circle class="st4" cx="22.9" cy="23" r="18"/>
<g>
	<defs>
		<rect id="SVGID_1_" x="14.9" y="15" width="16" height="16"/>
	</defs>
	<clipPath id="SVGID_00000098211687114377450710000000877621724010527407_">
		<use xlink:href="#SVGID_1_"  style="overflow:visible;"/>
	</clipPath>
	<g style="clip-path:url(#SVGID_00000098211687114377450710000000877621724010527407_);">
		<path class="st6" d="M30.6,20.6L23.1,18c-0.1,0-0.3,0-0.4,0l-7.4,2.5c-0.2,0.1-0.4,0.3-0.4,0.5c0,0.2,0.2,0.5,0.4,0.5l2.9,1v3
			c0,0.1,0.1,0.3,0.1,0.4c1.2,1.3,2.9,2,4.6,2c1.7,0,3.3-0.7,4.5-2c0.1-0.1,0.2-0.2,0.2-0.4v-3.1l1.2-0.4v1.4
			c-0.1,0.1-0.2,0.3-0.2,0.5v1.4c0,0.3,0.3,0.6,0.6,0.6c0.3,0,0.6-0.3,0.6-0.6v-1.4c0-0.2-0.1-0.3-0.2-0.5V22l1-0.3
			c0.2-0.1,0.4-0.3,0.4-0.5C30.9,20.9,30.8,20.7,30.6,20.6z M26.5,25.5c-1,0.9-2.2,1.4-3.5,1.4c-1.4,0-2.7-0.5-3.6-1.5V23l3.4,1.2
			c0.1,0,0.1,0,0.2,0c0.1,0,0.1,0,0.2,0l3.4-1.2V25.5L26.5,25.5z M23,23l-5.7-1.9l5.6-1.9l5.6,1.9L23,23z"/>
	</g>
</g>
</svg>
