<?xml version="1.0" encoding="utf-8"?>
<!-- Generator: Adobe Illustrator 26.3.1, SVG Export Plug-In . SVG Version: 6.00 Build 0)  -->
<svg version="1.1" id="Слой_1" xmlns="http://www.w3.org/2000/svg" xmlns:xlink="http://www.w3.org/1999/xlink" x="0px" y="0px"
	 width="46.1px" height="46.5px" viewBox="0 0 46.1 46.5" style="enable-background:new 0 0 46.1 46.5;" xml:space="preserve">
<style type="text/css">
	.st0{opacity:0.1;}
	.st1{fill:#31353A;}
	.st2{opacity:0.3;}
	.st3{fill:#7A1B1B;}
	.st4{fill:#C79791;}
	.st5{clip-path:url(#SVGID_00000121984631344897643930000008298331728081822120_);}
	.st6{fill:#FFFFFF;}
</style>
<g class="st0">
	<path class="st1" d="M45.9,39.8c0,2.7-10.3,4.8-22.9,4.8C10.3,44.6,0,42.5,0,39.8C0,37.2,10.3,35,22.9,35
		C35.6,35,45.9,37.2,45.9,39.8z"/>
	<path class="st1" d="M22.9,46.5L7.4,43.3h31.1L22.9,46.5z"/>
</g>
<g class="st2">
	<ellipse class="st3" cx="23.1" cy="23" rx="22.9" ry="23"/>
</g>
<circle class="st4" cx="22.9" cy="23" r="18"/>
<g>
	<defs>
		<rect id="SVGID_1_" x="15.9" y="14" width="16" height="16"/>
	</defs>
	<clipPath id="SVGID_00000015326608274139066510000010568760755701740966_">
		<use xlink:href="#SVGID_1_"  style="overflow:visible;"/>
	</clipPath>
	<g style="clip-path:url(#SVGID_00000015326608274139066510000010568760755701740966_);">
		<path class="st6" d="M29.9,22.5h-1.1l0.1-1.2c0-0.1,0-0.3-0.1-0.4c-0.1-0.1-0.2-0.2-0.4-0.2H17.1c-0.1,0-0.3,0.1-0.4,0.2
			c-0.1,0.1-0.1,0.2-0.1,0.4l0.2,4.7c0.1,1.2,0.8,2.2,1.8,2.6h-2.2c-0.3,0-0.5,0.2-0.5,0.5s0.2,0.5,0.5,0.5h12.6
			c0.3,0,0.5-0.2,0.5-0.5s-0.2-0.5-0.5-0.5h-2.2c0.8-0.4,1.4-1.1,1.7-2h1.4c1.1,0,2.1-0.9,2.1-2.1S31,22.5,29.9,22.5z M25.6,27.9
			h-5.8c-1.1,0-1.9-0.8-2-1.9l-0.2-4.2h10.1L27.6,26C27.5,27,26.7,27.9,25.6,27.9z M29.9,25.6h-1.3l0.1-2.1c0,0,0,0,0,0h1.1
			c0.6,0,1.1,0.5,1.1,1.1C30.9,25.2,30.4,25.6,29.9,25.6z"/>
		<path class="st6" d="M21.2,19.9c0.1,0,0.2,0.1,0.3,0.1c0.2,0,0.3-0.1,0.4-0.2c0.1-0.2,0.1-0.6-0.2-0.7c-0.3-0.2-0.5-0.5-0.5-0.8
			c-0.1-0.4,0-0.8,0.3-1c0,0,0,0,0,0c0.1-0.1,0.1-0.1,0.2-0.2c0.5-0.5,1-1.1,1.1-1.9c0-0.3-0.1-0.5-0.4-0.6c-0.3,0-0.5,0.1-0.6,0.4
			c-0.1,0.5-0.4,0.9-0.9,1.4c-0.1,0.1-0.1,0.1-0.2,0.2c-0.4,0.5-0.6,1.2-0.5,1.9C20.3,19,20.7,19.6,21.2,19.9z"/>
		<path class="st6" d="M22.8,18.8c0.2,0.4,0.5,0.8,0.8,1.1c0.1,0.1,0.2,0.1,0.3,0.1c0.2,0,0.3-0.1,0.4-0.2c0.2-0.2,0.1-0.5-0.1-0.7
			c-0.2-0.2-0.4-0.4-0.5-0.7c-0.2-0.5,0-1,0.6-1.7c0.5-0.5,0.7-1.1,0.8-1.6c0-0.3-0.1-0.5-0.4-0.6c-0.3,0-0.5,0.1-0.6,0.4
			c-0.1,0.4-0.3,0.8-0.6,1.1C23.3,16.3,22.3,17.4,22.8,18.8z"/>
	</g>
</g>
</svg>
