<?xml version="1.0" encoding="utf-8"?>
<!-- Generator: Adobe Illustrator 26.3.1, SVG Export Plug-In . SVG Version: 6.00 Build 0)  -->
<svg version="1.1" id="Слой_1" xmlns="http://www.w3.org/2000/svg" xmlns:xlink="http://www.w3.org/1999/xlink" x="0px" y="0px"
	 width="44.6px" height="51.3px" viewBox="0 0 44.6 51.3" style="enable-background:new 0 0 44.6 51.3;" xml:space="preserve">
<style type="text/css">
	.st0{opacity:0.1;}
	.st1{fill:#31353A;}
	.st2{fill:#C79791;}
	.st3{fill-rule:evenodd;clip-rule:evenodd;fill:#FFFFFF;}
</style>
<g class="st0">
	<path class="st1" d="M44.6,44.9c0,2.5-9.7,4.6-21.8,4.6S1.1,47.5,1.1,44.9s9.7-4.6,21.8-4.6S44.6,42.4,44.6,44.9z"/>
	<path class="st1" d="M22.8,51.3l-14.8-3h29.5L22.8,51.3z"/>
</g>
<path class="st2" d="M41,21.3c0,11.8-9.2,21.3-20.5,21.3C9.2,42.6,0,33.1,0,21.3C0,9.5,9.2,0,20.5,0C31.8,0,41,9.5,41,21.3z"/>
<path class="st2" d="M20.5,51L6.6,36.9h27.8L20.5,51z"/>
<path class="st3" d="M21.9,7.4h-1.2v1.3h1.2V7.4z M18.8,27.6l-1.2,1.3v7h1.2V27.6z M23.1,35.9h-1.2v-8.4l-2.5-1.5l-2.5,2.6v7.3h-1.2
	v-9.6l5-5.2V9.3h3.7v1.3h-1.2V35.9z"/>
</svg>
